REM DIRINDEX 1\2,1\3,1\4,1\5,1\6
REM DIRNAME folder01,folder02,folder03,folder04,folder05,folder06
TITLE ""
FILE "Disc3Track38.mp3" MP3
  TRACK 01 AUDIO
    TITLE "3:cjc030_05134"
    INDEX 01 00:00:00
  TRACK 02 AUDIO
    TITLE "0:"
    INDEX 01 00:00:64
  TRACK 03 AUDIO
    TITLE "4:cjc030_05135"
    INDEX 01 00:01:01
  TRACK 04 AUDIO
    TITLE "0:"
    INDEX 01 00:01:60
  TRACK 05 AUDIO
    TITLE "5:cjc030_05136"
    INDEX 01 00:01:69
  TRACK 06 AUDIO
    TITLE "0:"
    INDEX 01 00:02:65
  TRACK 07 AUDIO
    TITLE "6:cjc030_05137"
    INDEX 01 00:03:00
  TRACK 08 AUDIO
    TITLE "0:"
    INDEX 01 00:04:58
  TRACK 09 AUDIO
    TITLE "3:cjc030_05138"
    INDEX 01 00:05:34
  TRACK 10 AUDIO
    TITLE "0:"
    INDEX 01 00:06:41
  TRACK 11 AUDIO
    TITLE "4:cjc030_05139"
    INDEX 01 00:06:51
  TRACK 12 AUDIO
    TITLE "0:"
    INDEX 01 00:08:30
  TRACK 13 AUDIO
    TITLE "5:cjc030_05140"
    INDEX 01 00:08:40
  TRACK 14 AUDIO
    TITLE "0:"
    INDEX 01 00:09:47
  TRACK 15 AUDIO
    TITLE "3:cjc030_05141"
    INDEX 01 00:10:19
  TRACK 16 AUDIO
    TITLE "0:"
    INDEX 01 00:11:37
  TRACK 17 AUDIO
    TITLE "4:cjc030_05142"
    INDEX 01 00:11:46
  TRACK 18 AUDIO
    TITLE "0:"
    INDEX 01 00:12:46
  TRACK 19 AUDIO
    TITLE "5:cjc030_05143"
    INDEX 01 00:12:56
  TRACK 20 AUDIO
    TITLE "0:"
    INDEX 01 00:13:71
  TRACK 21 AUDIO
    TITLE "3:cjc030_05144"
    INDEX 01 00:14:45
  TRACK 22 AUDIO
    TITLE "0:"
    INDEX 01 00:15:72
  TRACK 23 AUDIO
    TITLE "4:cjc030_05145"
    INDEX 01 00:16:04
  TRACK 24 AUDIO
    TITLE "0:"
    INDEX 01 00:17:45
  TRACK 25 AUDIO
    TITLE "5:cjc030_05146"
    INDEX 01 00:17:49
  TRACK 26 AUDIO
    TITLE "0:"
    INDEX 01 00:19:01
  TRACK 27 AUDIO
    TITLE "6:cjc030_05147"
    INDEX 01 00:19:15
  TRACK 28 AUDIO
    TITLE "0:"
    INDEX 01 00:22:11
  TRACK 29 AUDIO
    TITLE "3:cjc030_05148"
    INDEX 01 00:22:62
  TRACK 30 AUDIO
    TITLE "0:"
    INDEX 01 00:23:59
  TRACK 31 AUDIO
    TITLE "4:cjc030_05149"
    INDEX 01 00:23:67
  TRACK 32 AUDIO
    TITLE "0:"
    INDEX 01 00:24:59
  TRACK 33 AUDIO
    TITLE "5:cjc030_05150"
    INDEX 01 00:24:65
  TRACK 34 AUDIO
    TITLE "0:"
    INDEX 01 00:25:64
  TRACK 35 AUDIO
    TITLE "3:cjc030_05151"
    INDEX 01 00:26:48
  TRACK 36 AUDIO
    TITLE "0:"
    INDEX 01 00:27:61
  TRACK 37 AUDIO
    TITLE "4:cjc030_05152"
    INDEX 01 00:27:67
  TRACK 38 AUDIO
    TITLE "0:"
    INDEX 01 00:28:74
  TRACK 39 AUDIO
    TITLE "5:cjc030_05153"
    INDEX 01 00:29:05
  TRACK 40 AUDIO
    TITLE "0:"
    INDEX 01 00:30:18
  TRACK 41 AUDIO
    TITLE "6:cjc030_05154"
    INDEX 01 00:30:32
  TRACK 42 AUDIO
    TITLE "0:"
    INDEX 01 00:34:16
  TRACK 43 AUDIO
    TITLE "3:cjc030_05155"
    INDEX 01 00:34:67
  TRACK 44 AUDIO
    TITLE "0:"
    INDEX 01 00:36:03
  TRACK 45 AUDIO
    TITLE "4:cjc030_05156"
    INDEX 01 00:36:11
  TRACK 46 AUDIO
    TITLE "0:"
    INDEX 01 00:37:14
  TRACK 47 AUDIO
    TITLE "5:cjc030_05157"
    INDEX 01 00:37:22
  TRACK 48 AUDIO
    TITLE "0:"
    INDEX 01 00:38:35
  TRACK 49 AUDIO
    TITLE "3:cjc030_05158"
    INDEX 01 00:39:07
  TRACK 50 AUDIO
    TITLE "0:"
    INDEX 01 00:40:26
  TRACK 51 AUDIO
    TITLE "4:cjc030_05159"
    INDEX 01 00:40:36
  TRACK 52 AUDIO
    TITLE "0:"
    INDEX 01 00:41:20
  TRACK 53 AUDIO
    TITLE "5:cjc030_05160"
    INDEX 01 00:41:28
  TRACK 54 AUDIO
    TITLE "0:"
    INDEX 01 00:42:47
  TRACK 55 AUDIO
    TITLE "3:cjc030_05161"
    INDEX 01 00:43:29
  TRACK 56 AUDIO
    TITLE "0:"
    INDEX 01 00:44:32
  TRACK 57 AUDIO
    TITLE "4:cjc030_05162"
    INDEX 01 00:44:40
  TRACK 58 AUDIO
    TITLE "0:"
    INDEX 01 00:46:70
  TRACK 59 AUDIO
    TITLE "5:cjc030_05163"
    INDEX 01 00:47:01
  TRACK 60 AUDIO
    TITLE "0:"
    INDEX 01 00:48:06
  TRACK 61 AUDIO
    TITLE "6:cjc030_05164"
    INDEX 01 00:48:18
  TRACK 62 AUDIO
    TITLE "0:"
    INDEX 01 00:52:08
  TRACK 63 AUDIO
    TITLE "3:cjc030_05165"
    INDEX 01 00:52:59
  TRACK 64 AUDIO
    TITLE "0:"
    INDEX 01 00:53:72
  TRACK 65 AUDIO
    TITLE "4:cjc030_05166"
    INDEX 01 00:54:05
  TRACK 66 AUDIO
    TITLE "0:"
    INDEX 01 00:54:64
  TRACK 67 AUDIO
    TITLE "5:cjc030_05167"
    INDEX 01 00:54:74
  TRACK 68 AUDIO
    TITLE "0:"
    INDEX 01 00:56:14
  TRACK 69 AUDIO
    TITLE "3:cjc030_05168"
    INDEX 01 00:56:71
  TRACK 70 AUDIO
    TITLE "0:"
    INDEX 01 00:57:72
  TRACK 71 AUDIO
    TITLE "4:cjc030_05169"
    INDEX 01 00:58:05
  TRACK 72 AUDIO
    TITLE "0:"
    INDEX 01 01:00:33
  TRACK 73 AUDIO
    TITLE "5:cjc030_05170"
    INDEX 01 01:00:41
  TRACK 74 AUDIO
    TITLE "0:"
    INDEX 01 01:01:44
  TRACK 75 AUDIO
    TITLE "6:cjc030_05171"
    INDEX 01 01:01:56
  TRACK 76 AUDIO
    TITLE "0:"
    INDEX 01 01:05:24
  TRACK 77 AUDIO
    TITLE "3:cjc030_05172"
    INDEX 01 01:05:71
  TRACK 78 AUDIO
    TITLE "0:"
    INDEX 01 01:07:14
  TRACK 79 AUDIO
    TITLE "4:cjc030_05173"
    INDEX 01 01:07:21
  TRACK 80 AUDIO
    TITLE "0:"
    INDEX 01 01:08:05
  TRACK 81 AUDIO
    TITLE "5:cjc030_05174"
    INDEX 01 01:08:13
  TRACK 82 AUDIO
    TITLE "0:"
    INDEX 01 01:09:30
  TRACK 83 AUDIO
    TITLE "3:cjc030_05175"
    INDEX 01 01:10:08
  TRACK 84 AUDIO
    TITLE "0:"
    INDEX 01 01:11:13
  TRACK 85 AUDIO
    TITLE "4:cjc030_05176"
    INDEX 01 01:11:23
  TRACK 86 AUDIO
    TITLE "0:"
    INDEX 01 01:12:24
  TRACK 87 AUDIO
    TITLE "5:cjc030_05177"
    INDEX 01 01:12:34
  TRACK 88 AUDIO
    TITLE "0:"
    INDEX 01 01:13:38
  TRACK 89 AUDIO
    TITLE "3:cjc030_05178"
    INDEX 01 01:14:21
  TRACK 90 AUDIO
    TITLE "0:"
    INDEX 01 01:15:25
  TRACK 91 AUDIO
    TITLE "4:cjc030_05179"
    INDEX 01 01:15:35
  TRACK 92 AUDIO
    TITLE "0:"
    INDEX 01 01:16:58
  TRACK 93 AUDIO
    TITLE "5:cjc030_05180"
    INDEX 01 01:16:67
  TRACK 94 AUDIO
    TITLE "0:"
    INDEX 01 01:17:71
  TRACK 95 AUDIO
    TITLE "6:cjc030_05181"
    INDEX 01 01:18:07
  TRACK 96 AUDIO
    TITLE "0:"
    INDEX 01 01:22:01
  TRACK 97 AUDIO
    TITLE "3:cjc030_05182"
    INDEX 01 01:22:48
  TRACK 98 AUDIO
    TITLE "0:"
    INDEX 01 01:23:65
  TRACK 99 AUDIO
    TITLE "4:cjc030_05183"
    INDEX 01 01:24:00
  TRACK 100 AUDIO
    TITLE "0:"
    INDEX 01 01:26:48
  TRACK 101 AUDIO
    TITLE "5:cjc030_05184"
    INDEX 01 01:26:56
  TRACK 102 AUDIO
    TITLE "0:"
    INDEX 01 01:27:71
  TRACK 103 AUDIO
    TITLE "6:cjc030_05185"
    INDEX 01 01:28:10
  TRACK 104 AUDIO
    TITLE "0:"
    INDEX 01 01:33:05
  TRACK 105 AUDIO
    TITLE "3:cjc030_05186"
    INDEX 01 01:33:52
  TRACK 106 AUDIO
    TITLE "0:"
    INDEX 01 01:34:71
  TRACK 107 AUDIO
    TITLE "4:cjc030_05187"
    INDEX 01 01:35:08
  TRACK 108 AUDIO
    TITLE "0:"
    INDEX 01 01:37:17
  TRACK 109 AUDIO
    TITLE "5:cjc030_05188"
    INDEX 01 01:37:24
  TRACK 110 AUDIO
    TITLE "0:"
    INDEX 01 01:38:45
